<mxfile host="Electron" agent="Mozilla/5.0 (Windows NT 10.0; Win64; x64) AppleWebKit/537.36 (KHTML, like Gecko) draw.io/24.7.8 Chrome/128.0.6613.36 Electron/32.0.1 Safari/537.36" version="24.7.8">
  <diagram name="Page-1" id="b520641d-4fe3-3701-9064-5fc419738815">
    <mxGraphModel dx="972" dy="751" grid="1" gridSize="10" guides="1" tooltips="1" connect="1" arrows="1" fold="1" page="1" pageScale="1" pageWidth="1100" pageHeight="850" background="none" math="0" shadow="0">
      <root>
        <mxCell id="0" />
        <mxCell id="1" parent="0" />
        <mxCell id="OuFLP07_aSIhWUJT215E-4" style="edgeStyle=orthogonalEdgeStyle;rounded=0;orthogonalLoop=1;jettySize=auto;html=1;exitX=0;exitY=0.25;exitDx=0;exitDy=0;entryX=1;entryY=0.25;entryDx=0;entryDy=0;" parent="1" source="OuFLP07_aSIhWUJT215E-1" target="OuFLP07_aSIhWUJT215E-2" edge="1">
          <mxGeometry relative="1" as="geometry" />
        </mxCell>
        <mxCell id="OuFLP07_aSIhWUJT215E-5" value="Display information" style="edgeLabel;html=1;align=center;verticalAlign=middle;resizable=0;points=[];" parent="OuFLP07_aSIhWUJT215E-4" vertex="1" connectable="0">
          <mxGeometry x="-0.0591" y="-2" relative="1" as="geometry">
            <mxPoint as="offset" />
          </mxGeometry>
        </mxCell>
        <mxCell id="OuFLP07_aSIhWUJT215E-1" value="0" style="swimlane;fontStyle=0;childLayout=stackLayout;horizontal=1;startSize=20;fillColor=#fff2cc;horizontalStack=0;resizeParent=1;resizeParentMax=0;resizeLast=0;collapsible=0;marginBottom=0;swimlaneFillColor=#ffffff;rounded=1;strokeColor=#d6b656;arcSize=20;" parent="1" vertex="1">
          <mxGeometry x="440" y="390" width="100" height="80" as="geometry" />
        </mxCell>
        <mxCell id="OuFLP07_aSIhWUJT215E-7" value="Game Engine" style="text;html=1;align=center;verticalAlign=middle;whiteSpace=wrap;rounded=0;" parent="OuFLP07_aSIhWUJT215E-1" vertex="1">
          <mxGeometry y="20" width="100" height="40" as="geometry" />
        </mxCell>
        <mxCell id="OuFLP07_aSIhWUJT215E-27" value="&amp;nbsp;" style="text;html=1;align=center;verticalAlign=middle;whiteSpace=wrap;rounded=1;fillColor=#fff2cc;strokeColor=#d6b656;arcSize=13;" parent="OuFLP07_aSIhWUJT215E-1" vertex="1">
          <mxGeometry y="60" width="100" height="20" as="geometry" />
        </mxCell>
        <mxCell id="OuFLP07_aSIhWUJT215E-28" value="" style="endArrow=none;html=1;rounded=0;exitX=0;exitY=0;exitDx=0;exitDy=0;entryX=1;entryY=0;entryDx=0;entryDy=0;fillColor=#fff2cc;strokeColor=#d6b656;" parent="OuFLP07_aSIhWUJT215E-1" source="OuFLP07_aSIhWUJT215E-27" target="OuFLP07_aSIhWUJT215E-27" edge="1">
          <mxGeometry width="50" height="50" relative="1" as="geometry">
            <mxPoint x="40" y="155" as="sourcePoint" />
            <mxPoint x="90" y="105" as="targetPoint" />
          </mxGeometry>
        </mxCell>
        <mxCell id="OuFLP07_aSIhWUJT215E-3" style="edgeStyle=orthogonalEdgeStyle;rounded=0;orthogonalLoop=1;jettySize=auto;html=1;exitX=1;exitY=0.75;exitDx=0;exitDy=0;entryX=0;entryY=0.75;entryDx=0;entryDy=0;" parent="1" source="OuFLP07_aSIhWUJT215E-2" target="OuFLP07_aSIhWUJT215E-1" edge="1">
          <mxGeometry relative="1" as="geometry" />
        </mxCell>
        <mxCell id="OuFLP07_aSIhWUJT215E-6" value="User Input" style="edgeLabel;html=1;align=center;verticalAlign=middle;resizable=0;points=[];" parent="OuFLP07_aSIhWUJT215E-3" vertex="1" connectable="0">
          <mxGeometry x="0.0172" y="-2" relative="1" as="geometry">
            <mxPoint as="offset" />
          </mxGeometry>
        </mxCell>
        <mxCell id="OuFLP07_aSIhWUJT215E-2" value="Player" style="html=1;dashed=0;whiteSpace=wrap;" parent="1" vertex="1">
          <mxGeometry x="170" y="385" width="110" height="90" as="geometry" />
        </mxCell>
        <mxCell id="9sISITEIr3bTT2Y9FeWu-5" style="edgeStyle=orthogonalEdgeStyle;rounded=0;orthogonalLoop=1;jettySize=auto;html=1;exitX=-0.005;exitY=0.321;exitDx=0;exitDy=0;exitPerimeter=0;entryX=1.014;entryY=0.096;entryDx=0;entryDy=0;entryPerimeter=0;" edge="1" parent="1" source="9sISITEIr3bTT2Y9FeWu-4" target="OuFLP07_aSIhWUJT215E-7">
          <mxGeometry relative="1" as="geometry" />
        </mxCell>
        <mxCell id="9sISITEIr3bTT2Y9FeWu-6" value="Game Data" style="edgeLabel;html=1;align=center;verticalAlign=middle;resizable=0;points=[];" vertex="1" connectable="0" parent="9sISITEIr3bTT2Y9FeWu-5">
          <mxGeometry x="0.0087" y="-1" relative="1" as="geometry">
            <mxPoint as="offset" />
          </mxGeometry>
        </mxCell>
        <mxCell id="9sISITEIr3bTT2Y9FeWu-4" value="Game Save Data" style="html=1;dashed=0;whiteSpace=wrap;" vertex="1" parent="1">
          <mxGeometry x="690" y="385" width="110" height="90" as="geometry" />
        </mxCell>
        <mxCell id="9sISITEIr3bTT2Y9FeWu-7" style="edgeStyle=orthogonalEdgeStyle;rounded=0;orthogonalLoop=1;jettySize=auto;html=1;exitX=1;exitY=0.75;exitDx=0;exitDy=0;entryX=0.004;entryY=0.612;entryDx=0;entryDy=0;entryPerimeter=0;" edge="1" parent="1" source="OuFLP07_aSIhWUJT215E-7" target="9sISITEIr3bTT2Y9FeWu-4">
          <mxGeometry relative="1" as="geometry" />
        </mxCell>
        <mxCell id="9sISITEIr3bTT2Y9FeWu-8" value="Save Data" style="edgeLabel;html=1;align=center;verticalAlign=middle;resizable=0;points=[];" vertex="1" connectable="0" parent="9sISITEIr3bTT2Y9FeWu-7">
          <mxGeometry x="0.048" y="1" relative="1" as="geometry">
            <mxPoint as="offset" />
          </mxGeometry>
        </mxCell>
      </root>
    </mxGraphModel>
  </diagram>
</mxfile>
